<?xml version="1.0" encoding="utf-8"?>
<!-- Generator: Adobe Illustrator 18.0.0, SVG Export Plug-In . SVG Version: 6.00 Build 0)  -->
<!DOCTYPE svg PUBLIC "-//W3C//DTD SVG 1.1//EN" "http://www.w3.org/Graphics/SVG/1.1/DTD/svg11.dtd">
<svg version="1.1" id="Layer_1" xmlns="http://www.w3.org/2000/svg" xmlns:xlink="http://www.w3.org/1999/xlink" x="0px" y="0px"
	 viewBox="0 0 148 28" enable-background="new 0 0 148 28" xml:space="preserve">
<path fill="#010101" d="M51.5,6c-1.3,0.9-3.3,0.2-4-1.6c-0.7-1.6,0-3.2,1.5-3.7c1.2-0.4,2.5,0.2,3.3,1.5C53,3.5,52.7,5.2,51.5,6z
	 M39.8,0l8.7,12.2L47,27.9h5.6V10.6l2.9-7l-5,4.9L39.8,0 M0,27.7h4V17.6l11.9,10.1l0,0V8.5h-4V19L0,8.5l0,0V27.7z M18.8,27.7h11.4
	v-4.3h-7.4v-3.3h6.3v-4.3h-6.3v-3.3h7.3V8.4H18.8C18.8,8.5,18.8,27.7,18.8,27.7z M74.2,27.7h11.4v-4.3h-7.4v-3.3h6.3v-4.3h-6.3v-3.3
	h7.3V8.4H74.2V27.7L74.2,27.7z M129.4,8.5l-3.2,19.2h4.1h0.4l1.1-9l5.3,7.5l0,0l5.3-7.5l1.1,9h0.4h4.1l-3.2-19.2l0,0l0,0L137,20
	L129.4,8.5 M126.2,18.1c0,5.4-4.1,9.7-9.2,9.7s-9.2-4.3-9.2-9.7s4.1-9.7,9.2-9.7C122.2,8.5,126.2,12.8,126.2,18.1z M122.2,18.1
	c0-2.9-2.3-5.4-5.1-5.4c-2.8,0-5.1,2.4-5.1,5.4s2.3,5.4,5.1,5.4C119.9,23.5,122.2,21.1,122.2,18.1z M120.7,18.1l-5.8-3.3v6.6
	L120.7,18.1L120.7,18.1z M39.9,16c-3-0.9-3.6-1.2-3.6-2.3l0,0c0-0.9,0.8-1.5,2.1-1.5c1.3,0,2.8,0.6,4.5,1.8l0.1,0.1l2.2-3.4
	l-0.1-0.1c-1.8-1.6-4.1-2.4-6.7-2.4c-3.8,0-6.3,2.4-6.3,5.9l0,0c0,4,2.5,5,5.9,6c2.9,0.9,3.4,1.3,3.4,2.2l0,0c0,1-0.8,1.6-2.3,1.6
	c-1.8,0-3.4-0.7-5.1-2.2l-0.1-0.1l-2.5,3.2l0.1,0.1c2.1,2,4.7,3.1,7.5,3.1c4.1,0,6.6-2.3,6.6-6l0,0C45.6,18.3,43.3,17,39.9,16z
	 M87.3,25.7c0,1.1,0.8,2.1,1.9,2.1c1.1,0,2.1-1,2.1-2.1c0-1.2-0.8-2.1-2.1-2.1C88.1,23.5,87.3,24.4,87.3,25.7z M105,21.1
	c-1,1.5-2.4,2.3-4.2,2.3c-2.8,0-5.1-2.4-5.1-5.4s2.3-5.4,5.1-5.4c1.7,0,3.2,0.9,4.1,2.2l2.7-3.3c-1.7-2-4.1-3.2-6.9-3.2
	c-5.1,0-9.2,4.3-9.2,9.7s4.1,9.7,9.2,9.7c2.9,0,5.5-1.3,7.2-3.5L105,21.1z M55.4,27.7h4V17.6l11.9,10.1l0,0V8.5h-4V19L55.4,8.5l0,0
	V27.7z"/>
</svg>
